<mxfile host="app.diagrams.net" modified="2024-01-26T12:31:16.892Z" agent="Mozilla/5.0 (Windows NT 10.0; Win64; x64; rv:122.0) Gecko/20100101 Firefox/122.0" etag="ekA5A1iSy4pe6TrWS_yS" version="22.1.21" type="device">
  <diagram name="Page-1" id="Fn41L4iqo23cJN483EVl">
    <mxGraphModel dx="787" dy="420" grid="1" gridSize="10" guides="1" tooltips="1" connect="1" arrows="1" fold="1" page="1" pageScale="1" pageWidth="827" pageHeight="1169" math="0" shadow="0">
      <root>
        <mxCell id="0" />
        <mxCell id="1" parent="0" />
        <mxCell id="xNWHvn1gwaUhMMkQVwpX-2" value="" style="rounded=0;whiteSpace=wrap;html=1;direction=south;fillColor=#dae8fc;strokeColor=#6c8ebf;" vertex="1" parent="1">
          <mxGeometry x="120" y="10" width="400" height="510" as="geometry" />
        </mxCell>
        <mxCell id="xNWHvn1gwaUhMMkQVwpX-3" value="" style="rounded=0;whiteSpace=wrap;html=1;fillColor=#fff2cc;strokeColor=#d6b656;direction=south;" vertex="1" parent="1">
          <mxGeometry x="590" y="10" width="160" height="510" as="geometry" />
        </mxCell>
        <mxCell id="xNWHvn1gwaUhMMkQVwpX-4" value="Client" style="shape=umlActor;verticalLabelPosition=bottom;verticalAlign=top;html=1;outlineConnect=0;" vertex="1" parent="1">
          <mxGeometry x="40" y="180" width="30" height="60" as="geometry" />
        </mxCell>
        <mxCell id="xNWHvn1gwaUhMMkQVwpX-5" value="Appli_Bank_Front" style="text;html=1;strokeColor=none;fillColor=none;align=center;verticalAlign=middle;whiteSpace=wrap;rounded=0;" vertex="1" parent="1">
          <mxGeometry x="290" y="10" width="60" height="30" as="geometry" />
        </mxCell>
        <mxCell id="xNWHvn1gwaUhMMkQVwpX-6" value="Appli_Bank_Back" style="text;html=1;strokeColor=none;fillColor=none;align=center;verticalAlign=middle;whiteSpace=wrap;rounded=0;" vertex="1" parent="1">
          <mxGeometry x="640" y="10" width="60" height="30" as="geometry" />
        </mxCell>
        <mxCell id="xNWHvn1gwaUhMMkQVwpX-8" value="" style="shape=cylinder3;whiteSpace=wrap;html=1;boundedLbl=1;backgroundOutline=1;size=15;fillColor=#f8cecc;strokeColor=#b85450;" vertex="1" parent="1">
          <mxGeometry x="860" y="120" width="120" height="180" as="geometry" />
        </mxCell>
        <mxCell id="xNWHvn1gwaUhMMkQVwpX-9" value="Base de donnée" style="text;html=1;strokeColor=none;fillColor=none;align=center;verticalAlign=middle;whiteSpace=wrap;rounded=0;" vertex="1" parent="1">
          <mxGeometry x="890" y="80" width="60" height="30" as="geometry" />
        </mxCell>
        <mxCell id="xNWHvn1gwaUhMMkQVwpX-16" value="Connexion" style="ellipse;whiteSpace=wrap;html=1;" vertex="1" parent="1">
          <mxGeometry x="140" y="50" width="120" height="50" as="geometry" />
        </mxCell>
        <mxCell id="xNWHvn1gwaUhMMkQVwpX-17" value="Demande de connexion" style="ellipse;whiteSpace=wrap;html=1;" vertex="1" parent="1">
          <mxGeometry x="620" y="50" width="120" height="50" as="geometry" />
        </mxCell>
        <mxCell id="xNWHvn1gwaUhMMkQVwpX-20" value="" style="line;strokeWidth=1;fillColor=none;align=left;verticalAlign=middle;spacingTop=-1;spacingLeft=3;spacingRight=3;rotatable=0;labelPosition=right;points=[];portConstraint=eastwest;strokeColor=inherit;" vertex="1" parent="1">
          <mxGeometry x="260" y="71" width="360" height="8" as="geometry" />
        </mxCell>
        <mxCell id="xNWHvn1gwaUhMMkQVwpX-21" value="Renvoi une liste d&#39;option" style="ellipse;whiteSpace=wrap;html=1;" vertex="1" parent="1">
          <mxGeometry x="620" y="110" width="120" height="50" as="geometry" />
        </mxCell>
        <mxCell id="xNWHvn1gwaUhMMkQVwpX-22" value="Affiche le menu des options" style="ellipse;whiteSpace=wrap;html=1;" vertex="1" parent="1">
          <mxGeometry x="140" y="110" width="120" height="50" as="geometry" />
        </mxCell>
        <mxCell id="xNWHvn1gwaUhMMkQVwpX-23" value="" style="line;strokeWidth=1;fillColor=none;align=left;verticalAlign=middle;spacingTop=-1;spacingLeft=3;spacingRight=3;rotatable=0;labelPosition=right;points=[];portConstraint=eastwest;strokeColor=inherit;" vertex="1" parent="1">
          <mxGeometry x="260" y="131" width="360" height="8" as="geometry" />
        </mxCell>
        <mxCell id="xNWHvn1gwaUhMMkQVwpX-25" value="Affiche les informations du compte" style="ellipse;whiteSpace=wrap;html=1;" vertex="1" parent="1">
          <mxGeometry x="140" y="170" width="120" height="50" as="geometry" />
        </mxCell>
        <mxCell id="xNWHvn1gwaUhMMkQVwpX-26" value="Renvoi les informations du compte " style="ellipse;whiteSpace=wrap;html=1;" vertex="1" parent="1">
          <mxGeometry x="620" y="170" width="120" height="50" as="geometry" />
        </mxCell>
        <mxCell id="xNWHvn1gwaUhMMkQVwpX-27" value="" style="line;strokeWidth=1;fillColor=none;align=left;verticalAlign=middle;spacingTop=-1;spacingLeft=3;spacingRight=3;rotatable=0;labelPosition=right;points=[];portConstraint=eastwest;strokeColor=inherit;" vertex="1" parent="1">
          <mxGeometry x="260" y="191" width="360" height="8" as="geometry" />
        </mxCell>
        <mxCell id="xNWHvn1gwaUhMMkQVwpX-28" value="Affiche les opérations du compte" style="ellipse;whiteSpace=wrap;html=1;" vertex="1" parent="1">
          <mxGeometry x="140" y="235" width="120" height="50" as="geometry" />
        </mxCell>
        <mxCell id="xNWHvn1gwaUhMMkQVwpX-29" value="Renvoi les opérations effectuer sur le compte" style="ellipse;whiteSpace=wrap;html=1;" vertex="1" parent="1">
          <mxGeometry x="600" y="230" width="130" height="60" as="geometry" />
        </mxCell>
        <mxCell id="xNWHvn1gwaUhMMkQVwpX-30" value="" style="line;strokeWidth=1;fillColor=none;align=left;verticalAlign=middle;spacingTop=-1;spacingLeft=3;spacingRight=3;rotatable=0;labelPosition=right;points=[];portConstraint=eastwest;strokeColor=inherit;" vertex="1" parent="1">
          <mxGeometry x="260" y="256" width="340" height="8" as="geometry" />
        </mxCell>
        <mxCell id="xNWHvn1gwaUhMMkQVwpX-31" value="Effectuer une opération" style="ellipse;whiteSpace=wrap;html=1;" vertex="1" parent="1">
          <mxGeometry x="140" y="350" width="120" height="50" as="geometry" />
        </mxCell>
        <mxCell id="xNWHvn1gwaUhMMkQVwpX-32" value="Virement" style="ellipse;whiteSpace=wrap;html=1;" vertex="1" parent="1">
          <mxGeometry x="300" y="280" width="120" height="50" as="geometry" />
        </mxCell>
        <mxCell id="xNWHvn1gwaUhMMkQVwpX-35" style="edgeStyle=orthogonalEdgeStyle;rounded=0;orthogonalLoop=1;jettySize=auto;html=1;exitX=0;exitY=0.5;exitDx=0;exitDy=0;" edge="1" parent="1" source="xNWHvn1gwaUhMMkQVwpX-32">
          <mxGeometry relative="1" as="geometry">
            <mxPoint x="282.42640687119297" y="299.9976695296637" as="sourcePoint" />
            <mxPoint x="200" y="350" as="targetPoint" />
            <Array as="points">
              <mxPoint x="300" y="300" />
              <mxPoint x="201" y="300" />
            </Array>
          </mxGeometry>
        </mxCell>
        <mxCell id="xNWHvn1gwaUhMMkQVwpX-33" value="Versement" style="ellipse;whiteSpace=wrap;html=1;" vertex="1" parent="1">
          <mxGeometry x="300" y="350" width="120" height="50" as="geometry" />
        </mxCell>
        <mxCell id="xNWHvn1gwaUhMMkQVwpX-34" value="retrait" style="ellipse;whiteSpace=wrap;html=1;" vertex="1" parent="1">
          <mxGeometry x="300" y="420" width="120" height="50" as="geometry" />
        </mxCell>
        <mxCell id="xNWHvn1gwaUhMMkQVwpX-38" style="edgeStyle=orthogonalEdgeStyle;rounded=0;orthogonalLoop=1;jettySize=auto;html=1;entryX=0.5;entryY=1;entryDx=0;entryDy=0;" edge="1" parent="1" target="xNWHvn1gwaUhMMkQVwpX-31">
          <mxGeometry relative="1" as="geometry">
            <mxPoint x="300" y="450" as="sourcePoint" />
            <mxPoint x="200" y="500" as="targetPoint" />
            <Array as="points">
              <mxPoint x="300" y="450" />
              <mxPoint x="201" y="450" />
            </Array>
          </mxGeometry>
        </mxCell>
        <mxCell id="xNWHvn1gwaUhMMkQVwpX-40" style="edgeStyle=orthogonalEdgeStyle;rounded=0;orthogonalLoop=1;jettySize=auto;html=1;entryX=1;entryY=0.5;entryDx=0;entryDy=0;exitX=0;exitY=0.5;exitDx=0;exitDy=0;" edge="1" parent="1" source="xNWHvn1gwaUhMMkQVwpX-33" target="xNWHvn1gwaUhMMkQVwpX-31">
          <mxGeometry relative="1" as="geometry">
            <mxPoint x="380" y="420" as="sourcePoint" />
            <mxPoint x="280" y="370" as="targetPoint" />
            <Array as="points">
              <mxPoint x="290" y="375" />
              <mxPoint x="290" y="375" />
            </Array>
          </mxGeometry>
        </mxCell>
        <mxCell id="xNWHvn1gwaUhMMkQVwpX-41" value="Mise à jour du compte émetteur et receveur" style="ellipse;whiteSpace=wrap;html=1;" vertex="1" parent="1">
          <mxGeometry x="600" y="300" width="140" height="60" as="geometry" />
        </mxCell>
        <mxCell id="xNWHvn1gwaUhMMkQVwpX-43" value="" style="line;strokeWidth=1;fillColor=none;align=left;verticalAlign=middle;spacingTop=-1;spacingLeft=3;spacingRight=3;rotatable=0;labelPosition=right;points=[];portConstraint=eastwest;strokeColor=inherit;" vertex="1" parent="1">
          <mxGeometry x="540" y="326" width="60" height="8" as="geometry" />
        </mxCell>
        <mxCell id="xNWHvn1gwaUhMMkQVwpX-46" value="" style="shape=partialRectangle;whiteSpace=wrap;html=1;bottom=1;right=1;left=1;top=0;fillColor=none;routingCenterX=-0.5;direction=north;" vertex="1" parent="1">
          <mxGeometry x="420" y="300" width="120" height="73" as="geometry" />
        </mxCell>
        <mxCell id="xNWHvn1gwaUhMMkQVwpX-47" value="Mise à jour du compte débiteur" style="ellipse;whiteSpace=wrap;html=1;" vertex="1" parent="1">
          <mxGeometry x="600" y="415" width="140" height="60" as="geometry" />
        </mxCell>
        <mxCell id="xNWHvn1gwaUhMMkQVwpX-48" value="" style="line;strokeWidth=1;fillColor=none;align=left;verticalAlign=middle;spacingTop=-1;spacingLeft=3;spacingRight=3;rotatable=0;labelPosition=right;points=[];portConstraint=eastwest;strokeColor=inherit;" vertex="1" parent="1">
          <mxGeometry x="420" y="441" width="180" height="8" as="geometry" />
        </mxCell>
        <mxCell id="xNWHvn1gwaUhMMkQVwpX-61" style="edgeStyle=orthogonalEdgeStyle;rounded=0;orthogonalLoop=1;jettySize=auto;html=1;entryX=1;entryY=0.3333333333333333;entryDx=0;entryDy=0;entryPerimeter=0;exitX=0.042;exitY=0.3;exitDx=0;exitDy=0;exitPerimeter=0;" edge="1" parent="1" source="xNWHvn1gwaUhMMkQVwpX-25" target="xNWHvn1gwaUhMMkQVwpX-4">
          <mxGeometry relative="1" as="geometry">
            <mxPoint x="110" y="180" as="sourcePoint" />
            <mxPoint x="90" y="187.5" as="targetPoint" />
            <Array as="points" />
          </mxGeometry>
        </mxCell>
        <mxCell id="xNWHvn1gwaUhMMkQVwpX-62" style="edgeStyle=orthogonalEdgeStyle;rounded=0;orthogonalLoop=1;jettySize=auto;html=1;entryX=0.5;entryY=0;entryDx=0;entryDy=0;entryPerimeter=0;exitX=0;exitY=0.5;exitDx=0;exitDy=0;" edge="1" parent="1" source="xNWHvn1gwaUhMMkQVwpX-22" target="xNWHvn1gwaUhMMkQVwpX-4">
          <mxGeometry relative="1" as="geometry">
            <mxPoint x="133" y="126.5" as="sourcePoint" />
            <mxPoint x="60" y="124.5" as="targetPoint" />
            <Array as="points" />
          </mxGeometry>
        </mxCell>
        <mxCell id="xNWHvn1gwaUhMMkQVwpX-63" style="edgeStyle=orthogonalEdgeStyle;rounded=0;orthogonalLoop=1;jettySize=auto;html=1;entryX=0.5;entryY=0;entryDx=0;entryDy=0;entryPerimeter=0;exitX=0;exitY=0.5;exitDx=0;exitDy=0;" edge="1" parent="1" source="xNWHvn1gwaUhMMkQVwpX-16" target="xNWHvn1gwaUhMMkQVwpX-4">
          <mxGeometry relative="1" as="geometry">
            <mxPoint x="150" y="145" as="sourcePoint" />
            <mxPoint x="65" y="190" as="targetPoint" />
            <Array as="points" />
          </mxGeometry>
        </mxCell>
        <mxCell id="xNWHvn1gwaUhMMkQVwpX-64" value="" style="shape=doubleArrow;whiteSpace=wrap;html=1;" vertex="1" parent="1">
          <mxGeometry x="750" y="180" width="110" height="60" as="geometry" />
        </mxCell>
        <mxCell id="xNWHvn1gwaUhMMkQVwpX-65" style="edgeStyle=orthogonalEdgeStyle;rounded=0;orthogonalLoop=1;jettySize=auto;html=1;exitX=0;exitY=0.5;exitDx=0;exitDy=0;" edge="1" parent="1" source="xNWHvn1gwaUhMMkQVwpX-31" target="xNWHvn1gwaUhMMkQVwpX-4">
          <mxGeometry relative="1" as="geometry">
            <mxPoint x="55" y="380" as="sourcePoint" />
            <mxPoint x="18" y="220" as="targetPoint" />
            <Array as="points" />
          </mxGeometry>
        </mxCell>
        <mxCell id="xNWHvn1gwaUhMMkQVwpX-66" style="edgeStyle=orthogonalEdgeStyle;rounded=0;orthogonalLoop=1;jettySize=auto;html=1;exitX=0;exitY=0.5;exitDx=0;exitDy=0;" edge="1" parent="1" source="xNWHvn1gwaUhMMkQVwpX-28" target="xNWHvn1gwaUhMMkQVwpX-4">
          <mxGeometry relative="1" as="geometry">
            <mxPoint x="140" y="300" as="sourcePoint" />
            <mxPoint x="55" y="345" as="targetPoint" />
            <Array as="points" />
          </mxGeometry>
        </mxCell>
      </root>
    </mxGraphModel>
  </diagram>
</mxfile>
